# xmcd
#
# Track frame offsets: 
#        183
#        12735
#        24930
#        39825
#        57055
#        71338
#        86715
#        98300
#        118283
#        130553
#        144885
#
# Disc length: 2210 seconds
#
# Revision: 1
# Processed by: cddbd v1.4PL0 Copyright (c) Steve Scherf et al.
# Submitted via: ExactAudioCopy v0.90b4
#
DISCID=7f08a00b
DTITLE=LeAnn Rimes - All That
DYEAR=1900
DGENRE=Country
TTITLE0=Blue
TTITLE1=Sure Thing
TTITLE2=I'll Get Even With You
TTITLE3=Why Can't We
TTITLE4=The Rest Is History
TTITLE5=Broken Wing
TTITLE6=Cowboys Sweetheart
TTITLE7=Middle Man
TTITLE8=Share My Love
TTITLE9=Yesterday
TTITLE10=I Will Always Love You
EXTD=
EXTT0=
EXTT1=
EXTT2=
EXTT3=
EXTT4=
EXTT5=
EXTT6=
EXTT7=
EXTT8=
EXTT9=
EXTT10=
PLAYORDER=
